<svg xmlns="http://www.w3.org/2000/svg" viewBox="0 0 32 32"><rect width="32" height="32" fill="#000"/><g fill="none" stroke="#fff" stroke-width="2"><rect x="5" y="5" width="22" height="22" rx="2.5"/><line x1="11" y1="2.5" x2="11" y2="6.5"/><line x1="21" y1="2.5" x2="21" y2="6.5"/></g><path fill="#fff" d="M12.04 8.07L12.1 8.23L12.2 8.64L12.39 9.51L12.49 10.23L12.56 10.84L12.58 11.37L12.6 12.1L12.59 13.13L12.54 14.03L12.46 14.91L12.46 15.06L12.48 15.13L12.63 14.96L14.1 13.13L14.65 12.49L15.17 11.92L15.93 11.12L16.38 10.68L16.79 10.29L17.38 9.78L18 9.31L18.45 9.01L18.88 8.77L19.42 8.51L19.78 8.38L20.29 8.24L20.85 8.14L20.95 8.13L21.08 8.13L21.15 8.25L21.24 8.49L21.35 8.84L21.56 9.66L21.61 9.91L21.61 10.04L21.49 10.08L20.51 10.31L20.07 10.47L19.77 10.61L19.48 10.77L19.2 10.94L18.96 11.12L18.75 11.3L18.57 11.49L18.43 11.67L18.34 11.85L18.27 12.05L18.24 12.25L18.23 12.47L18.25 12.7L18.3 12.94L18.37 13.2L18.55 13.61L18.89 14.18L19.23 14.66L19.63 15.15L20.1 15.67L20.73 16.29L21.39 16.93L21.79 17.34L22.07 17.72L22.36 18.21L22.52 18.55L22.66 18.91L22.79 19.34L22.84 19.53L22.9 19.83L22.93 20.14L22.93 20.68L22.9 21.05L22.85 21.32L22.7 21.86L22.63 22.03L22.48 22.37L22.39 22.53L22.2 22.82L22 23.08L21.79 23.33L21.59 23.5L21.28 23.74L21.12 23.86L20.77 24.06L20.43 24.23L20.16 24.34L19.7 24.47L19.45 24.52L19.1 24.56L18.67 24.59L18.28 24.59L17.91 24.56L17.57 24.52L17.25 24.46L16.59 24.29L16.35 24.21L15.87 24.03L15.63 23.92L15.12 23.66L14.55 23.34L14.06 23.04L13.71 22.8L13.52 22.64L13.49 22.59L13.55 22.47L14.31 21.45L14.5 21.25L14.67 21.15L14.81 21.14L15.25 21.45L15.92 21.86L16.32 22.06L16.7 22.22L17.14 22.37L17.82 22.55L18.12 22.59L18.45 22.6L19.01 22.57L19.33 22.52L19.51 22.46L19.73 22.36L20.03 22.19L20.21 22.06L20.36 21.92L20.6 21.67L20.67 21.55L20.76 21.37L20.91 20.99L20.95 20.78L20.97 20.52L20.96 20.31L20.93 20.07L20.86 19.78L20.76 19.46L20.65 19.21L20.54 19.01L20.32 18.68L20.18 18.52L19.98 18.31L19.08 17.46L18.78 17.16L18.24 16.56L17.62 15.81L17.23 15.26L17.06 14.99L16.9 14.72L16.68 14.27L16.46 13.7L16.39 13.56L16.32 13.63L16.01 13.96L15.46 14.6L14.68 15.56L13.76 16.75L13.34 17.31L12.58 18.34L11.89 19.33L10.99 20.66L10.73 21.02L10.62 20.97L9.81 20.49L9.33 20.19L9.14 20.06L9.13 19.95L9.16 19.8L9.24 19.59L9.48 19.09L9.63 18.71L9.79 18.24L9.98 17.56L10.14 16.86L10.31 16.01L10.44 15.18L10.54 14.37L10.57 13.97L10.62 13.16L10.63 12.4L10.62 11.7L10.57 10.99L10.49 10.24L10.38 9.56L10.26 8.97L10.32 8.73L10.52 8.52L10.84 8.35L11.98 8.01L11.99 8L12.02 8.04Z"/></svg>
